<svg width="54" height="62" viewBox="0 0 54 62" fill="none" xmlns="http://www.w3.org/2000/svg">
<path d="M27.2773 12.8219V0.65979L10.7149 15.8625L27.2774 31.0652V18.903C38.2087 18.903 47.1524 27.1124 47.1524 37.1462C47.1524 47.18 38.2087 55.3894 27.2774 55.3894C16.3462 55.3894 7.4024 47.18 7.4024 37.1462H0.777344C0.777344 50.5246 12.7024 61.4705 27.2774 61.4705C41.8525 61.4705 53.7773 50.5246 53.7773 37.1462C53.7773 23.7678 41.8523 12.8219 27.2773 12.8219Z" fill="#FECA28"/>
<path d="M30.9201 46.1157C31.5826 46.2677 32.0795 46.4197 32.9076 46.4197C33.7357 46.4197 34.3982 46.4197 34.8951 46.1157C35.392 45.8117 35.8889 45.5075 36.3857 45.0514C36.8826 44.5954 37.2138 43.9872 37.3795 43.3792C37.5452 42.7712 37.7107 41.8589 37.7107 40.9467V38.6663C37.7107 37.7541 37.545 36.842 37.3795 36.2338C37.214 35.6256 36.7169 35.0176 36.3857 34.5615C36.0545 34.1055 35.5577 33.6494 34.8951 33.4973C34.2325 33.3452 33.7357 33.1933 32.9076 33.1933C32.0795 33.1933 31.417 33.1933 30.9201 33.4973C30.4232 33.8013 29.9263 34.1055 29.4294 34.5615C28.9326 35.0176 28.6014 35.6258 28.4357 36.2338C28.27 36.842 28.1045 37.7541 28.1045 38.6663V40.9467C28.1045 41.8589 28.2702 42.771 28.4357 43.3792C28.6014 43.9873 29.0982 44.5954 29.4294 45.0514C29.7606 45.5075 30.2575 45.9637 30.9201 46.1157ZM31.0858 38.3623C31.0858 37.7541 31.2514 37.1461 31.2514 36.842C31.2514 36.5379 31.4171 36.0819 31.5826 35.9298C31.7483 35.7777 32.0795 35.6258 32.2452 35.4737C32.4109 35.3216 32.7421 35.3216 33.0733 35.3216C33.4045 35.3216 33.5701 35.4737 33.9013 35.4737C34.2325 35.4737 34.3982 35.7777 34.5639 35.9298C34.7296 36.0819 34.7296 36.3859 34.8951 36.842C35.0608 37.298 35.0608 37.7541 35.0608 38.3623V41.2508C35.0608 41.859 34.8951 42.467 34.8951 42.7712C34.8951 43.0753 34.7294 43.5313 34.5639 43.6833C34.3982 43.8354 34.067 43.9873 33.9013 44.1394C33.7357 44.2915 33.4045 44.2915 33.0733 44.2915C32.7421 44.2915 32.5764 44.1394 32.2452 44.1394C31.914 44.1394 31.7483 43.8354 31.5826 43.6833C31.417 43.5313 31.417 43.2272 31.2514 42.7712C31.0859 42.3151 31.0858 41.859 31.0858 41.2508V38.3623Z" fill="#FECA28"/>
<path d="M23.634 46.2677V33.1934H23.3027L17.5059 35.1697V37.2982L20.8183 36.386V46.2677H23.634Z" fill="#FECA28"/>
</svg>
