<svg width="53" height="62" viewBox="0 0 53 62" fill="none" xmlns="http://www.w3.org/2000/svg">
<path d="M26.5001 12.2994V0L43.0625 15.3744L26.4999 30.7488V18.4492C15.5686 18.4492 6.62486 26.7514 6.62486 36.8984C6.62486 47.0455 15.5686 55.3477 26.4999 55.3477C37.4312 55.3477 46.3749 47.0455 46.3749 36.8984H53C53 50.4279 41.075 61.4974 26.4999 61.4974C11.9248 61.4974 -4.57764e-05 50.4279 -4.57764e-05 36.8984C-4.57764e-05 23.369 11.925 12.2994 26.5001 12.2994Z" fill="#FECA28"/>
<path d="M30.1437 45.9693C30.8063 46.1231 31.3031 46.2767 32.1312 46.2767C32.9593 46.2767 33.6218 46.2767 34.1187 45.9693C34.6156 45.6618 35.1125 45.3542 35.6093 44.893C36.1062 44.4318 36.4374 43.8167 36.6031 43.2019C36.7688 42.587 36.9343 41.6644 36.9343 40.7419V38.4357C36.9343 37.5133 36.7686 36.5908 36.6031 35.9758C36.4376 35.3608 35.9405 34.7459 35.6093 34.2846C35.2781 33.8234 34.7813 33.3622 34.1187 33.2084C33.4562 33.0546 32.9593 32.9009 32.1312 32.9009C31.3031 32.9009 30.6406 32.9009 30.1437 33.2084C29.6468 33.5158 29.1499 33.8234 28.6531 34.2846C28.1562 34.7459 27.825 35.3609 27.6593 35.9758C27.4936 36.5908 27.3281 37.5133 27.3281 38.4357V40.7419C27.3281 41.6644 27.4938 42.5868 27.6593 43.2019C27.825 43.8169 28.3219 44.4318 28.6531 44.893C28.9843 45.3542 29.4811 45.8156 30.1437 45.9693ZM30.3094 38.1283C30.3094 37.5133 30.4751 36.8984 30.4751 36.5908C30.4751 36.2834 30.6407 35.8221 30.8063 35.6683C30.9719 35.5145 31.3031 35.3609 31.4688 35.2071C31.6345 35.0533 31.9657 35.0533 32.2969 35.0533C32.6281 35.0533 32.7938 35.2071 33.125 35.2071C33.4562 35.2071 33.6218 35.5145 33.7875 35.6683C33.9532 35.8221 33.9532 36.1296 34.1187 36.5908C34.2844 37.052 34.2844 37.5133 34.2844 38.1283V41.0495C34.2844 41.6645 34.1187 42.2794 34.1187 42.587C34.1187 42.8946 33.953 43.3557 33.7875 43.5094C33.6218 43.6632 33.2906 43.8169 33.125 43.9707C32.9593 44.1245 32.6281 44.1245 32.2969 44.1245C31.9657 44.1245 31.8 43.9707 31.4688 43.9707C31.1376 43.9707 30.9719 43.6632 30.8063 43.5094C30.6406 43.3557 30.6406 43.0482 30.4751 42.587C30.3095 42.1257 30.3094 41.6645 30.3094 41.0495V38.1283Z" fill="#FECA28"/>
<path d="M22.8567 46.1229V32.9009H22.5253L16.7285 34.8995V37.052L20.0409 36.1296V46.1229H22.8567Z" fill="#FECA28"/>
</svg>
