<svg width="81" height="81" viewBox="0 0 81 81" fill="none" xmlns="http://www.w3.org/2000/svg">
<path d="M40.5 0C18.1983 0 0 18.2014 0 40.5C0 62.8017 18.2014 81 40.5 81C62.8017 81 81 62.7986 81 40.5C81 18.1983 62.7986 0 40.5 0ZM40.5 76.2539C20.7852 76.2539 4.74609 60.2148 4.74609 40.5C4.74609 20.7852 20.7852 4.74609 40.5 4.74609C60.2148 4.74609 76.2539 20.7852 76.2539 40.5C76.2539 60.2148 60.2148 76.2539 40.5 76.2539Z" fill="#FFC61B"/>
<path d="M16.2132 38.7516C15.2476 39.7384 15.2648 41.3212 16.2517 42.2869L32.3336 58.0229C33.3204 58.9886 34.9032 58.9714 35.8689 57.9845C36.8345 56.9976 36.8173 55.4148 35.8305 54.4492L21.5354 40.4616L35.523 26.1666C36.4887 25.1797 36.4715 23.5969 35.4846 22.6312C34.4977 21.6656 32.9149 21.6828 31.9493 22.6697L16.2132 38.7516ZM63.9728 37.5001L17.973 38.0001L18.0273 42.9999L64.0272 42.4999L63.9728 37.5001Z" fill="#FECA28"/>
</svg>
