<svg width="18" height="19" viewBox="0 0 18 19" fill="none" xmlns="http://www.w3.org/2000/svg">
<path d="M9 16.9008C9.46448 16.9013 9.91759 16.7572 10.2964 16.4884C10.6751 16.2196 10.9608 15.8394 11.1135 15.4008H6.8865C7.03925 15.8394 7.32486 16.2196 7.70363 16.4884C8.08241 16.7572 8.53553 16.9013 9 16.9008ZM14.25 11.3403V7.90076C14.25 5.48801 12.6112 3.45551 10.3913 2.84426C10.1715 2.29076 9.6345 1.90076 9 1.90076C8.3655 1.90076 7.8285 2.29076 7.60875 2.84426C5.38875 3.45626 3.75 5.48801 3.75 7.90076V11.3403L2.46975 12.6205C2.39997 12.69 2.34463 12.7727 2.30691 12.8637C2.2692 12.9547 2.24986 13.0522 2.25 13.1508V13.9008C2.25 14.0997 2.32902 14.2904 2.46967 14.4311C2.61032 14.5717 2.80109 14.6508 3 14.6508H15C15.1989 14.6508 15.3897 14.5717 15.5303 14.4311C15.671 14.2904 15.75 14.0997 15.75 13.9008V13.1508C15.7501 13.0522 15.7308 12.9547 15.6931 12.8637C15.6554 12.7727 15.6 12.69 15.5303 12.6205L14.25 11.3403Z" fill="#C8D3D7"/>
</svg>
