<svg width="41" height="41" viewBox="0 0 41 41" fill="none" xmlns="http://www.w3.org/2000/svg">
<path d="M20.5 0C9.21149 0 0 9.21305 0 20.5C0 31.7885 9.21305 41 20.5 41C31.7885 41 41 31.7869 41 20.5C41 9.21149 31.7869 0 20.5 0ZM20.5 38.5977C10.5209 38.5977 2.40234 30.4791 2.40234 20.5C2.40234 10.5209 10.5209 2.40234 20.5 2.40234C30.4791 2.40234 38.5977 10.5209 38.5977 20.5C38.5977 30.4791 30.4791 38.5977 20.5 38.5977Z" fill="#FFC61B"/>
<path d="M14.4941 32.3538L32.2749 20.5L14.4941 8.64626V32.3538ZM16.8965 13.135L27.9438 20.5L16.8965 27.865V13.135Z" fill="#FFC61B"/>
<path d="M16.3999 28.2444V12.7555L28.6999 20.5L16.3999 28.2444Z" fill="#FECA28"/>
</svg>
