<svg width="11" height="11" viewBox="0 0 11 11" fill="none" xmlns="http://www.w3.org/2000/svg">
<g clip-path="url(#clip0)">
<path d="M9.59781 3.45527C9.66302 3.39093 9.75095 3.35486 9.84256 3.35486C9.93417 3.35486 10.0221 3.39093 10.0873 3.45527C10.1194 3.4869 10.1449 3.52461 10.1624 3.5662C10.1798 3.60779 10.1887 3.65243 10.1887 3.69752C10.1887 3.7426 10.1798 3.78724 10.1624 3.82883C10.1449 3.87042 10.1194 3.90813 10.0873 3.93977L6.13331 7.85477C6.06809 7.9191 5.98017 7.95517 5.88856 7.95517C5.79695 7.95517 5.70902 7.9191 5.64381 7.85477L1.68981 3.93977C1.65769 3.90813 1.63217 3.87042 1.61476 3.82883C1.59735 3.78724 1.58838 3.7426 1.58838 3.69752C1.58838 3.65243 1.59735 3.60779 1.61476 3.5662C1.63217 3.52461 1.65769 3.4869 1.68981 3.45527C1.75503 3.39093 1.84295 3.35486 1.93456 3.35486C2.02617 3.35486 2.1141 3.39093 2.17931 3.45527L5.88881 7.02577L9.59781 3.45527Z" fill="#C8D3D7"/>
</g>
<defs>
<clipPath id="clip0">
<rect x="0.888672" y="0.400757" width="10" height="10" fill="white"/>
</clipPath>
</defs>
</svg>
