<svg width="8" height="8" viewBox="0 0 8 8" fill="none" xmlns="http://www.w3.org/2000/svg">
<g clip-path="url(#clip0)">
<path d="M2.44361 1.03279C2.39214 0.980622 2.36328 0.910282 2.36328 0.836994C2.36328 0.763707 2.39214 0.693367 2.44361 0.641194C2.46892 0.615494 2.49909 0.595085 2.53236 0.581154C2.56563 0.567223 2.60134 0.560049 2.63741 0.560049C2.67348 0.560049 2.70919 0.567223 2.74246 0.581154C2.77573 0.595085 2.8059 0.615494 2.83121 0.641194L5.96321 3.80439C6.01468 3.85657 6.04353 3.92691 6.04353 4.00019C6.04353 4.07348 6.01468 4.14382 5.96321 4.19599L2.83121 7.35919C2.8059 7.38489 2.77573 7.4053 2.74246 7.41923C2.70919 7.43316 2.67348 7.44034 2.63741 7.44034C2.60134 7.44034 2.56563 7.43316 2.53236 7.41923C2.49909 7.4053 2.46892 7.38489 2.44361 7.35919C2.39214 7.30702 2.36328 7.23668 2.36328 7.16339C2.36328 7.09011 2.39214 7.01977 2.44361 6.96759L5.30001 3.99999L2.44361 1.03279Z" stroke="#FECA28"/>
</g>
<defs>
<clipPath id="clip0">
<rect y="8" width="8" height="8" transform="rotate(-90 0 8)" fill="white"/>
</clipPath>
</defs>
</svg>
