<svg width="28" height="28" viewBox="0 0 28 28" fill="none" xmlns="http://www.w3.org/2000/svg">
<g clip-path="url(#clip0)">
<path d="M17.0257 6.11207H14.6962C11.7292 6.08238 11.3503 7.9186 11.3503 9.90588V11.3509H10.0406C9.98138 11.343 9.92116 11.3489 9.86459 11.368C9.80802 11.3872 9.75662 11.4191 9.71439 11.4613C9.67216 11.5035 9.64023 11.5549 9.62109 11.6115C9.60194 11.6681 9.5961 11.7283 9.60401 11.7875V14.4069C9.5961 14.4661 9.60194 14.5264 9.62109 14.5829C9.64023 14.6395 9.67216 14.6909 9.71439 14.7331C9.75662 14.7754 9.80802 14.8073 9.86459 14.8264C9.92116 14.8456 9.98138 14.8514 10.0406 14.8435H11.3503V21.3921C11.343 21.4514 11.3494 21.5116 11.3689 21.568C11.3885 21.6245 11.4207 21.6758 11.463 21.7179C11.5054 21.76 11.5569 21.7919 11.6134 21.8111C11.67 21.8303 11.7302 21.8363 11.7895 21.8287H14.4569C14.7145 21.8584 14.9232 21.6497 14.8411 21.3921L14.8429 14.8435H17.0257C17.0849 14.8514 17.1452 14.8456 17.2017 14.8264C17.2583 14.8073 17.3097 14.7754 17.3519 14.7331C17.3942 14.6909 17.4261 14.6395 17.4452 14.5829C17.4644 14.5264 17.4702 14.4661 17.4623 14.4069V11.7875C17.4702 11.7283 17.4644 11.6681 17.4452 11.6115C17.4261 11.5549 17.3942 11.5035 17.3519 11.4613C17.3097 11.4191 17.2583 11.3872 17.2017 11.368C17.1452 11.3489 17.0849 11.343 17.0257 11.3509H14.8403L14.8429 10.0412C14.9276 9.48328 14.9276 9.57408 15.4453 9.60464H17.0074C17.1288 9.57758 17.258 9.59242 17.3488 9.50423C17.4396 9.41604 17.492 9.29555 17.4614 9.16807V6.54864C17.4695 6.48949 17.4638 6.42928 17.4448 6.3727C17.4257 6.31612 17.3939 6.2647 17.3517 6.22244C17.3095 6.18019 17.2582 6.14824 17.2016 6.1291C17.1451 6.10995 17.0849 6.10412 17.0257 6.11207ZM16.5586 8.6826L15.4637 8.64069C14.1077 8.64069 13.9942 9.37675 13.9942 10.1303L13.9907 11.7858C13.9906 11.8471 14.0025 11.9078 14.0259 11.9645C14.0493 12.0211 14.0836 12.0726 14.1269 12.116C14.1702 12.1594 14.2217 12.1938 14.2783 12.2173C14.3349 12.2408 14.3956 12.2529 14.4569 12.2529H16.5892V13.9398H14.4587C14.3349 13.9398 14.2163 13.9889 14.1287 14.0763C14.0411 14.1637 13.9918 14.2823 13.9916 14.4061L13.9907 20.9555H12.2234V14.4069C12.2234 14.1494 12.0479 13.9407 11.7895 13.9407H10.4772V12.2538H11.7895C11.8508 12.2539 11.9114 12.2419 11.9681 12.2185C12.0247 12.1951 12.0762 12.1608 12.1195 12.1176C12.2068 12.0294 12.2226 11.9106 12.2226 11.7866V9.905C12.2226 7.94741 12.6181 7.0149 14.6953 7.0149H16.5577V8.6826H16.5586Z" fill="#FECA28"/>
<path d="M14.0009 0C6.2814 0 0 6.27966 0 14C0 21.7203 6.2814 28 14.0009 28C21.7203 28 28.0017 21.7203 28.0017 14C28.0017 6.27966 21.7203 0 14.0009 0ZM14.0009 27.0675C6.79568 27.0675 0.934265 21.2052 0.934265 14C0.934265 6.79481 6.79568 0.932518 14.0009 0.932518C21.2061 0.932518 27.0675 6.79481 27.0675 14C27.0675 21.2052 21.2061 27.0675 14.0009 27.0675Z" fill="#FECA28"/>
</g>
<defs>
<clipPath id="clip0">
<rect width="28" height="28" fill="white"/>
</clipPath>
</defs>
</svg>
