<svg width="40" height="41" viewBox="0 0 40 41" fill="none" xmlns="http://www.w3.org/2000/svg">
<path d="M20 0.5C14.6786 0.5 9.66187 2.58618 5.87402 6.37402C2.08618 10.1619 0 15.1786 0 20.5C0 31.5132 8.98834 40.5 20 40.5C31.0132 40.5 40 31.5117 40 20.5C40 9.48682 31.0117 0.5 20 0.5ZM20 38.1562C10.2643 38.1562 2.34375 30.2357 2.34375 20.5C2.34375 10.7643 10.2643 2.84375 20 2.84375C29.7357 2.84375 37.6562 10.7643 37.6562 20.5C37.6562 30.2357 29.7357 38.1562 20 38.1562Z" fill="#FFC61B"/>
<path d="M31.0957 13.1785C28.2826 10.3628 23.723 10.3612 20.9093 13.1779L19.9995 14.0874L19.0904 13.1785C16.2772 10.3628 11.7177 10.3612 8.90398 13.1779C6.08836 15.9924 6.08773 20.5497 8.90367 23.3646L19.9995 34.4623L31.0951 23.3649C33.9104 20.5506 33.9116 15.9934 31.0957 13.1785ZM29.3974 21.6668L19.9995 31.0662L10.6016 21.6665C8.72484 19.7906 8.72359 16.7531 10.6022 14.8756C12.4768 12.9991 15.516 12.9978 17.3924 14.8763L19.9995 17.4819L22.6076 14.8756C24.4821 12.9991 27.5213 12.9978 29.3974 14.8763C31.2745 16.7522 31.2751 19.79 29.3974 21.6668Z" fill="#FFC61B"/>
<path d="M8.12981 19.4067C7.58915 15.7818 8.4542 9.61952 16.2397 13.9694C18.2767 15.1075 19.6426 15.923 20.5136 16.4938L23.2684 12.3382C26.5123 11.6132 32.784 11.577 31.9189 17.2318C31.0539 22.8866 29.3959 23.2128 28.675 22.6691L20.0244 33L8.12981 21.0379V19.4067Z" fill="#FECA28"/>
</svg>
