<svg width="28" height="28" viewBox="0 0 28 28" fill="none" xmlns="http://www.w3.org/2000/svg">
<g clip-path="url(#clip0)">
<path d="M14.0591 4.91338C15.5686 4.91338 16.8009 4.93136 17.7561 4.96732C18.5698 5.00328 19.295 5.14713 19.9318 5.39886C20.545 5.6386 21.0757 5.98623 21.5238 6.44175C21.972 6.89726 22.3139 7.43668 22.5498 8.06002C22.7974 8.70733 22.939 9.44454 22.9743 10.2717C23.0097 11.2426 23.0274 12.4953 23.0274 14.0297C23.0274 15.564 23.0097 16.8167 22.9743 17.7876C22.939 18.6148 22.7974 19.352 22.5498 19.9993C22.3139 20.6226 21.972 21.162 21.5238 21.6176C21.0757 22.0731 20.545 22.4207 19.9318 22.6604C19.295 22.9122 18.5698 23.056 17.7561 23.092C16.8009 23.128 15.5686 23.1459 14.0591 23.1459C12.5497 23.1459 11.3173 23.128 10.3621 23.092C9.54843 23.056 8.82318 22.9122 8.18638 22.6604C7.57317 22.4207 7.0425 22.0731 6.59438 21.6176C6.14626 21.162 5.80427 20.6226 5.56842 19.9993C5.32078 19.352 5.17926 18.6148 5.14389 17.7876C5.10851 16.8167 5.09082 15.564 5.09082 14.0297C5.09082 12.4953 5.10851 11.2426 5.14389 10.2717C5.17926 9.44454 5.32078 8.70733 5.56842 8.06002C5.80427 7.43668 6.14626 6.89726 6.59438 6.44175C7.0425 5.98623 7.57317 5.6386 8.18638 5.39886C8.82318 5.14713 9.54843 5.00328 10.3621 4.96732C11.3173 4.93136 12.5497 4.91338 14.0591 4.91338ZM14.0591 6.10011C12.4907 6.10011 11.2112 6.11809 10.2206 6.15405C9.58381 6.17803 8.99418 6.29191 8.45172 6.49569C7.60265 6.8553 7.00122 7.46665 6.64745 8.32973C6.44697 8.88114 6.33494 9.48051 6.31136 10.1278C6.27598 11.1347 6.25829 12.4354 6.25829 14.0297C6.25829 15.624 6.27598 16.9246 6.31136 17.9315C6.33494 18.5788 6.44697 19.1782 6.64745 19.7296C7.00122 20.5927 7.60265 21.204 8.45172 21.5636C8.99418 21.7674 9.58381 21.8813 10.2206 21.9053C11.2112 21.9412 12.4907 21.9592 14.0591 21.9592C15.6275 21.9592 16.907 21.9412 17.8976 21.9053C18.5344 21.8813 19.124 21.7674 19.6665 21.5636C20.5156 21.204 21.117 20.5927 21.4708 19.7296C21.6712 19.1782 21.7833 18.5788 21.8069 17.9315C21.8422 16.9246 21.8599 15.624 21.8599 14.0297C21.8599 12.4354 21.8422 11.1347 21.8069 10.1278C21.7833 9.48051 21.6712 8.88114 21.4708 8.32973C21.117 7.46665 20.5156 6.8553 19.6665 6.49569C19.124 6.29191 18.5344 6.17803 17.8976 6.15405C16.907 6.11809 15.6275 6.10011 14.0591 6.10011ZM14.0591 17.6798C15.0497 17.6798 15.8958 17.3231 16.5975 16.6099C17.2991 15.8967 17.65 15.0366 17.65 14.0297C17.65 13.0227 17.2991 12.1626 16.5975 11.4494C15.8958 10.7362 15.0497 10.3795 14.0591 10.3795C13.0685 10.3795 12.2224 10.7362 11.5207 11.4494C10.8191 12.1626 10.4683 13.0227 10.4683 14.0297C10.4683 15.0366 10.8191 15.8967 11.5207 16.6099C12.2224 17.3231 13.0685 17.6798 14.0591 17.6798ZM14.0591 9.35464C15.3327 9.35464 16.4176 9.81015 17.3139 10.7212C18.2101 11.6322 18.6582 12.735 18.6582 14.0297C18.6582 15.3243 18.2101 16.4271 17.3139 17.3381C16.4176 18.2492 15.3327 18.7047 14.0591 18.7047C12.7855 18.7047 11.7006 18.2492 10.8043 17.3381C9.90811 16.4271 9.45999 15.3243 9.45999 14.0297C9.45999 12.735 9.90811 11.6322 10.8043 10.7212C11.7006 9.81015 12.7855 9.35464 14.0591 9.35464ZM19.9318 9.17483C19.9318 9.47451 19.8257 9.72924 19.6134 9.93902C19.4012 10.1488 19.1417 10.2537 18.8351 10.2537C18.5403 10.2537 18.2897 10.1488 18.0833 9.93902C17.877 9.72924 17.7738 9.47451 17.7738 9.17483C17.7738 8.86316 17.877 8.59945 18.0833 8.38368C18.2897 8.16791 18.5403 8.06002 18.8351 8.06002C19.1299 8.06002 19.3864 8.1709 19.6046 8.39267C19.8228 8.61443 19.9318 8.87515 19.9318 9.17483Z" fill="#FECA28"/>
<mask id="path-3-inside-1" fill="white">
<path d="M14.001 0C6.28144 0 0 6.2797 0 14.0001C0 21.7205 6.28144 28.0002 14.001 28.0002C21.7205 28.0002 28.0019 21.7205 28.0019 14.0001C28.0019 6.2797 21.7205 0 14.001 0ZM14.001 27.0677C6.79573 27.0677 0.934271 21.2053 0.934271 14.0001C0.934271 6.79485 6.79573 0.932524 14.001 0.932524C21.2062 0.932524 27.0677 6.79485 27.0677 14.0001C27.0677 21.2053 21.2062 27.0677 14.001 27.0677Z"/>
</mask>
<path d="M14.001 0C6.28144 0 0 6.2797 0 14.0001C0 21.7205 6.28144 28.0002 14.001 28.0002C21.7205 28.0002 28.0019 21.7205 28.0019 14.0001C28.0019 6.2797 21.7205 0 14.001 0ZM14.001 27.0677C6.79573 27.0677 0.934271 21.2053 0.934271 14.0001C0.934271 6.79485 6.79573 0.932524 14.001 0.932524C21.2062 0.932524 27.0677 6.79485 27.0677 14.0001C27.0677 21.2053 21.2062 27.0677 14.001 27.0677Z" fill="#FECA28"/>
<path d="M14.001 -1C5.72928 -1 -1 5.72729 -1 14.0001H1C1 6.8321 6.8336 1 14.001 1V-1ZM-1 14.0001C-1 22.2729 5.72928 29.0002 14.001 29.0002V27.0002C6.8336 27.0002 1 21.1681 1 14.0001H-1ZM14.001 29.0002C22.2726 29.0002 29.0019 22.2729 29.0019 14.0001H27.0019C27.0019 21.1681 21.1683 27.0002 14.001 27.0002V29.0002ZM29.0019 14.0001C29.0019 5.72729 22.2726 -1 14.001 -1V1C21.1683 1 27.0019 6.8321 27.0019 14.0001H29.0019ZM14.001 26.0677C7.3481 26.0677 1.93427 20.6531 1.93427 14.0001H-0.0657295C-0.0657295 21.7575 6.24336 28.0677 14.001 28.0677V26.0677ZM1.93427 14.0001C1.93427 7.34705 7.3481 1.93252 14.001 1.93252V-0.0674757C6.24336 -0.0674757 -0.0657295 6.24266 -0.0657295 14.0001H1.93427ZM14.001 1.93252C20.6538 1.93252 26.0677 7.34705 26.0677 14.0001H28.0677C28.0677 6.24266 21.7586 -0.0674757 14.001 -0.0674757V1.93252ZM26.0677 14.0001C26.0677 20.6531 20.6538 26.0677 14.001 26.0677V28.0677C21.7586 28.0677 28.0677 21.7575 28.0677 14.0001H26.0677Z" fill="#FECA28" mask="url(#path-3-inside-1)"/>
</g>
<defs>
<clipPath id="clip0">
<rect width="28" height="28" fill="white"/>
</clipPath>
</defs>
</svg>
