<svg width="170" height="170" viewBox="0 0 170 170" fill="none" xmlns="http://www.w3.org/2000/svg">
<path fill-rule="evenodd" clip-rule="evenodd" d="M85 0C62.3843 0 41.0629 8.86627 24.9646 24.9646C8.86627 41.0629 0 62.3843 0 85C0 131.806 38.2005 170 85 170C131.806 170 170 131.8 170 85C170 38.194 131.8 0 85 0ZM85 160.039C43.6232 160.039 9.96094 126.377 9.96094 85C9.96094 43.6232 43.6232 9.96094 85 9.96094C126.377 9.96094 160.039 43.6232 160.039 85C160.039 126.377 126.377 160.039 85 160.039ZM131.033 53.9123C119.363 42.2316 100.447 42.2251 88.7744 53.9097L85.0001 57.6827L81.2284 53.9123C69.558 42.2316 50.6426 42.2251 38.9697 53.9097C27.2889 65.5853 27.2863 84.4903 38.9684 96.1672L85.0001 142.204L131.031 96.1685C142.71 84.4942 142.715 65.5892 131.033 53.9123Z" fill="#FECA28"/>
</svg>
