<svg width="20" height="20" viewBox="0 0 20 20" fill="none" xmlns="http://www.w3.org/2000/svg">
<path d="M10 0C7.33932 0 4.83093 1.04309 2.93701 2.93701C1.04309 4.83093 0 7.33932 0 10C0 15.5066 4.49417 20 10 20C15.5066 20 20 15.5058 20 10C20 4.49341 15.5058 0 10 0ZM10 18.8281C5.13214 18.8281 1.17188 14.8679 1.17188 10C1.17188 5.13214 5.13214 1.17188 10 1.17188C14.8679 1.17188 18.8281 5.13214 18.8281 10C18.8281 14.8679 14.8679 18.8281 10 18.8281Z" fill="#FFC61B"/>
<path d="M15.5043 6.34557C14.1088 4.95355 11.847 4.95277 10.4513 6.34526L9.99996 6.79489L9.54896 6.34557C8.15349 4.95355 5.8917 4.95277 4.49591 6.34526C3.0992 7.73666 3.09889 9.98961 4.49576 11.3812L9.99996 16.8675L15.504 11.3813C16.9006 9.99008 16.9012 7.73712 15.5043 6.34557ZM14.6619 10.5419L9.99996 15.1886L5.33804 10.5417C4.40705 9.61433 4.40643 8.11272 5.33835 7.18455C6.26825 6.25685 7.77585 6.25623 8.70669 7.18486L9.99996 8.47301L11.2937 7.18455C12.2236 6.25685 13.7312 6.25623 14.6619 7.18486C15.593 8.11226 15.5933 9.61402 14.6619 10.5419Z" fill="#FFC61B"/>
</svg>
