<svg width="19" height="19" viewBox="0 0 19 19" fill="none" xmlns="http://www.w3.org/2000/svg">
<path d="M7.09196 0.900757C8.86513 0.900757 10.5657 1.60514 11.8195 2.85896C13.0733 4.11277 13.7777 5.81331 13.7777 7.58647C13.7777 9.24247 13.1708 10.7648 12.1731 11.9373L12.4508 12.215H13.2634L18.4063 17.3579L16.8634 18.9008L11.7205 13.7579V12.9453L11.4428 12.6676C10.2297 13.7032 8.68698 14.2721 7.09196 14.2722C5.3188 14.2722 3.61827 13.5678 2.36445 12.314C1.11064 11.0602 0.40625 9.35963 0.40625 7.58647C0.40625 5.81331 1.11064 4.11277 2.36445 2.85896C3.61827 1.60514 5.3188 0.900757 7.09196 0.900757V0.900757ZM7.09196 2.9579C4.52054 2.9579 2.46339 5.01504 2.46339 7.58647C2.46339 10.1579 4.52054 12.215 7.09196 12.215C9.66339 12.215 11.7205 10.1579 11.7205 7.58647C11.7205 5.01504 9.66339 2.9579 7.09196 2.9579Z" fill="#1B1C1F"/>
</svg>
