<svg width="40" height="25" viewBox="0 0 40 25" fill="none" xmlns="http://www.w3.org/2000/svg">
<path d="M17.187 20.2749L26.48 10.9819L22.066 6.56786L12.773 15.8609C12.645 15.989 12.5542 16.1493 12.51 16.3249L11.48 21.5679L16.722 20.5379C16.898 20.4939 17.059 20.4029 17.187 20.2749ZM29.48 7.98186C29.8549 7.6068 30.0656 7.09819 30.0656 6.56786C30.0656 6.03753 29.8549 5.52891 29.48 5.15386L27.894 3.56786C27.5189 3.19292 27.0103 2.98228 26.48 2.98228C25.9497 2.98228 25.441 3.19292 25.066 3.56786L23.48 5.15386L27.894 9.56786L29.48 7.98186Z" fill="#F0F1F3"/>
</svg>
