<svg width="28" height="28" viewBox="0 0 28 28" fill="none" xmlns="http://www.w3.org/2000/svg">
<g clip-path="url(#clip0)">
<path d="M14.0004 -0.0296631C6.26448 -0.0296631 -0.0302734 6.26334 -0.0302734 14.0001C-0.0302734 21.7368 6.26448 28.0298 14.0004 28.0298C21.7362 28.0298 28.031 21.7368 28.031 14.0001C28.031 6.26334 21.7362 -0.0296631 14.0004 -0.0296631ZM14.0004 27.0953C6.77985 27.0953 0.905977 21.2206 0.905977 14.0001C0.905977 6.77959 6.77985 0.904837 14.0004 0.904837C21.2209 0.904837 27.0947 6.77959 27.0947 14.0001C27.0947 21.2206 21.2209 27.0953 14.0004 27.0953Z" fill="#FECA28"/>
<path d="M21.6951 9.66534C21.7921 9.48568 21.8721 9.29731 21.934 9.10271C21.9626 9.01244 21.9632 8.91562 21.9356 8.82501C21.9081 8.73441 21.8537 8.65429 21.7797 8.59524C21.7056 8.53619 21.6154 8.50097 21.521 8.49425C21.4265 8.48753 21.3322 8.50961 21.2506 8.55759C20.8022 8.82394 20.3169 9.02239 19.8103 9.14646C19.1955 8.59151 18.3969 8.28387 17.5686 8.28284C17.1186 8.28318 16.6733 8.37439 16.2594 8.55099C15.8455 8.72759 15.4715 8.98595 15.1599 9.31057C14.8483 9.6352 14.6054 10.0194 14.4458 10.4402C14.2863 10.8609 14.2133 11.3096 14.2313 11.7592C12.2635 11.5115 10.4665 10.5157 9.21322 8.97846C9.1652 8.92022 9.10384 8.87444 9.03434 8.84499C8.96483 8.81554 8.88925 8.80331 8.81401 8.80932C8.73877 8.81533 8.66609 8.83941 8.60214 8.87953C8.5382 8.91964 8.48489 8.97459 8.44672 9.03971C8.15974 9.53227 8.00376 10.0902 7.99365 10.6601C7.98354 11.2301 8.11964 11.7932 8.38897 12.2956C8.32292 12.3067 8.25946 12.3299 8.20172 12.3638C8.13098 12.409 8.07273 12.4712 8.03236 12.5447C7.99199 12.6183 7.97079 12.7008 7.97072 12.7847C7.97072 13.7778 8.4126 14.6896 9.12485 15.3091L9.09422 15.3397C9.04045 15.4005 9.00346 15.4743 8.98689 15.5538C8.97032 15.6333 8.97474 15.7157 8.99972 15.793C9.14824 16.2563 9.39623 16.6816 9.72633 17.039C10.0564 17.3965 10.4607 17.6775 10.9107 17.8623C9.98637 18.3133 8.95191 18.4891 7.93047 18.369C7.82548 18.3583 7.7199 18.3827 7.63028 18.4384C7.54065 18.4942 7.47205 18.5781 7.43522 18.677C7.39985 18.7766 7.39919 18.8853 7.43334 18.9853C7.46749 19.0854 7.53445 19.171 7.62335 19.2282C9.01198 20.1194 10.6274 20.5929 12.2775 20.5923C17.685 20.5923 20.9172 16.1998 20.9172 11.9535L20.9163 11.81C21.4404 11.4008 21.8956 10.9105 22.2647 10.3575C22.3206 10.2739 22.3481 10.1745 22.3431 10.074C22.3381 9.97361 22.3009 9.87745 22.237 9.7998C22.1731 9.72215 22.0859 9.66715 21.9883 9.64293C21.8907 9.61871 21.7879 9.62657 21.6951 9.66534ZM20.1682 11.201C20.1047 11.2466 20.0537 11.3075 20.0198 11.3779C19.9858 11.4484 19.9701 11.5262 19.974 11.6043C19.9792 11.7198 19.9818 11.8371 19.9818 11.9526C19.9818 15.7396 17.1005 19.657 12.2783 19.657C11.4183 19.6574 10.5643 19.513 9.75222 19.23C10.7249 19.0436 11.6386 18.6265 12.4166 18.0137C12.4923 17.954 12.5478 17.8723 12.5753 17.7799C12.6029 17.6875 12.6013 17.5888 12.5706 17.4974C12.54 17.4059 12.4818 17.3262 12.4042 17.269C12.3265 17.2119 12.233 17.1801 12.1366 17.1781C11.7593 17.1709 11.389 17.0751 11.0556 16.8985C10.7221 16.7219 10.4348 16.4694 10.2168 16.1613C10.4382 16.1465 10.6552 16.1097 10.8661 16.0528C10.9682 16.0255 11.0579 15.9644 11.1208 15.8795C11.1837 15.7946 11.2159 15.6909 11.2123 15.5853C11.2086 15.4797 11.1693 15.3785 11.1007 15.2981C11.0321 15.2178 10.9383 15.163 10.8346 15.1428C10.4085 15.0562 10.014 14.8553 9.69323 14.5617C9.3725 14.2681 9.13762 13.8928 9.01372 13.476C9.24647 13.5346 9.48535 13.5687 9.72422 13.5766C9.92985 13.5757 10.1206 13.4497 10.1845 13.252C10.2483 13.0542 10.1731 12.8363 9.99897 12.7208C9.58726 12.4465 9.27026 12.0518 9.09126 11.5906C8.91226 11.1294 8.87999 10.6242 8.99885 10.144C10.5188 11.7035 12.5711 12.6322 14.7458 12.7445C14.8998 12.7453 15.0346 12.6902 15.1282 12.5773C15.2218 12.4645 15.2577 12.3148 15.2245 12.1713C15.1048 11.656 15.1583 11.1155 15.3768 10.6336C15.5952 10.1517 15.9664 9.75527 16.4329 9.5056C16.8993 9.25592 17.4351 9.16695 17.9572 9.25246C18.4794 9.33796 18.9588 9.59317 19.3212 9.97859C19.3755 10.0365 19.4437 10.0797 19.5194 10.1041C19.595 10.1284 19.6755 10.1331 19.7535 10.1177C19.8978 10.0888 20.0405 10.0556 20.1813 10.0171C20.1178 10.0646 20.0518 10.1087 19.9836 10.1492C19.8929 10.2048 19.8238 10.2896 19.7877 10.3897C19.7516 10.4898 19.7508 10.5992 19.7852 10.6999C19.8196 10.8006 19.8874 10.8865 19.9772 10.9436C20.067 11.0006 20.1736 11.0254 20.2793 11.0137L20.4386 10.9936C20.3509 11.0658 20.2607 11.135 20.1682 11.201Z" fill="#FECA28"/>
</g>
<defs>
<clipPath id="clip0">
<rect width="28" height="28" fill="white"/>
</clipPath>
</defs>
</svg>
