<svg width="25" height="26" viewBox="0 0 25 26" fill="none" xmlns="http://www.w3.org/2000/svg">
<path d="M10.9338 0.900757H13.6677V15.4546H10.9338V0.900757Z" fill="#FFC61B"/>
<path d="M18.4546 1.45721L17.0856 3.97684C20.0373 5.79455 21.8709 9.17642 21.8709 12.8024C21.8709 18.42 17.5786 22.99 12.3024 22.99C7.02617 22.99 2.73386 18.42 2.73386 12.8024C2.73386 9.17642 4.56747 5.79455 7.51919 3.97684L6.15012 1.45721C2.35653 3.79378 0 8.14098 0 12.8024C0 20.0247 5.51899 25.9008 12.3024 25.9008C19.0858 25.9008 24.6048 20.0247 24.6048 12.8024C24.6048 8.14098 22.2482 3.79378 18.4546 1.45721Z" fill="#FFC61B"/>
</svg>
